<?xml version="1.0" encoding="UTF-8" standalone="no"?>
<!-- Uploaded to: SVG Repo, www.svgrepo.com, Generator: SVG Repo Mixer Tools -->

<svg
   width="800"
   height="800"
   viewBox="0 0 16 16"
   version="1.1"
   id="svg2"
   xmlns="http://www.w3.org/2000/svg"
   xmlns:svg="http://www.w3.org/2000/svg">
  <defs
     id="defs2" />
  <g
     fill="#2e3436"
     id="g2"
     style="fill:#ebdbb2;fill-opacity:1">
    <path
       d="m 13,5 v 0.00391 c 0.265625,0 0.519531,0.105469 0.707031,0.289063 l 2,2 c 0.390625,0.390625 0.390625,1.023437 0,1.414062 l -2,2 C 13.519531,10.890625 13.265625,10.996094 13,10.992188 V 11 H 12 V 9 H 7 C 6.449219,9 6,8.550781 6,8 6,7.449219 6.449219,7 7,7 h 5 V 5 Z m 0,0"
       id="path1"
       style="fill:#ebdbb2;fill-opacity:1" />
    <path
       d="M 9.179688,1.097656 C 6.785156,0.691406 4.269531,1.550781 2.632812,3.496094 c -2.175781,2.597656 -2.175781,6.40625 0,9 2.179688,2.597656 5.929688,3.257812 8.863282,1.5625 0.230468,-0.132813 0.398437,-0.351563 0.46875,-0.605469 0.06641,-0.257813 0.03125,-0.53125 -0.101563,-0.761719 -0.277343,-0.476562 -0.886719,-0.640625 -1.367187,-0.363281 -2.105469,1.214844 -4.765625,0.75 -6.328125,-1.117187 -1.5625,-1.863282 -1.5625,-4.5625 0,-6.429688 1.5625,-1.863281 4.222656,-2.332031 6.328125,-1.113281 0.480468,0.273437 1.089844,0.113281 1.367187,-0.367188 0.132813,-0.226562 0.167969,-0.5 0.101563,-0.757812 C 11.894531,2.285156 11.726562,2.066406 11.496094,1.933594 10.765625,1.511719 9.980469,1.234375 9.179688,1.097656 Z m 0,0"
       id="path2"
       style="fill:#ebdbb2;fill-opacity:1" />
  </g>
</svg>
