<?xml version="1.0" encoding="UTF-8" standalone="no"?>
<!-- Uploaded to: SVG Repo, www.svgrepo.com, Generator: SVG Repo Mixer Tools -->

<svg
   width="800"
   height="800"
   viewBox="0 0 16 16"
   version="1.1"
   id="svg1"
   xmlns="http://www.w3.org/2000/svg"
   xmlns:svg="http://www.w3.org/2000/svg">
  <defs
     id="defs1" />
  <path
     d="M 8,0 C 7.449219,0 7,0.449219 7,1 V 6 C 7,6.550781 7.449219,7 8,7 8.550781,7 9,6.550781 9,6 V 1 C 9,0.449219 8.550781,0 8,0 Z M 1,1 3.050781,3.050781 C 0.933594,5.167969 0.398438,8.40625 1.71875,11.089844 c 1.324219,2.683594 4.214844,4.238281 7.179688,3.851562 2.96875,-0.386718 5.367187,-2.625 5.960937,-5.554687 0.59375,-2.933594 -0.75,-5.929688 -3.335937,-7.433594 -0.476563,-0.28125 -1.089844,-0.117187 -1.367188,0.359375 -0.277344,0.476562 -0.117188,1.089844 0.359375,1.367188 1.851563,1.078124 2.808594,3.207031 2.382813,5.3125 -0.421876,2.101562 -2.128907,3.691406 -4.253907,3.96875 C 6.515625,13.234375 4.460938,12.132812 3.515625,10.207031 2.570312,8.28125 2.949219,5.980469 4.464844,4.464844 L 6,6 V 1.996094 C 6,1.476562 5.550781,1 5,1 Z m 0,0"
     fill="#2e3436"
     id="path1"
     style="fill:#ebdbb2;fill-opacity:1" />
</svg>
