<?xml version="1.0" encoding="UTF-8" standalone="no"?>
<!-- Uploaded to: SVG Repo, www.svgrepo.com, Generator: SVG Repo Mixer Tools -->

<svg
   width="800"
   height="800"
   viewBox="0 0 16 16"
   version="1.1"
   id="svg1"
   xmlns="http://www.w3.org/2000/svg"
   xmlns:svg="http://www.w3.org/2000/svg">
  <defs
     id="defs1" />
  <path
     d="M 8,0 C 7.449219,0 7,0.449219 7,1 V 6 C 7,6.550781 7.449219,7 8,7 8.550781,7 9,6.550781 9,6 V 1 C 9,0.449219 8.550781,0 8,0 Z M 4.863281,1.816406 C 4.734375,1.832031 4.609375,1.875 4.496094,1.941406 1.761719,3.523438 0.421875,6.757812 1.238281,9.8125 c 0.820313,3.050781 3.59375,5.183594 6.75,5.1875 3.160157,0.0039 5.941407,-2.121094 6.765625,-5.167969 0.828125,-3.050781 -0.5,-6.289062 -3.230468,-7.878906 -0.476563,-0.28125 -1.089844,-0.121094 -1.367188,0.359375 -0.132812,0.226562 -0.171875,0.5 -0.105469,0.757812 0.07031,0.257813 0.234375,0.476563 0.464844,0.609376 1.957031,1.140624 2.902344,3.441406 2.3125,5.628906 C 12.234375,11.492188 10.257812,13.003906 7.996094,13 5.730469,12.996094 3.757812,11.480469 3.171875,9.292969 2.585938,7.105469 3.535156,4.804688 5.496094,3.671875 5.972656,3.394531 6.136719,2.785156 5.859375,2.308594 5.726562,2.078125 5.511719,1.910156 5.253906,1.84375 5.128906,1.808594 4.996094,1.800781 4.863281,1.816406 Z m 0,0"
     fill="#2e3436"
     id="path1"
     style="fill:#ebdbb2;fill-opacity:1" />
</svg>
