<?xml version="1.0" encoding="UTF-8" standalone="no"?>
<!-- Uploaded to: SVG Repo, www.svgrepo.com, Generator: SVG Repo Mixer Tools -->

<svg
   width="800"
   height="800"
   viewBox="0 0 16 16"
   version="1.1"
   id="svg2"
   xmlns="http://www.w3.org/2000/svg"
   xmlns:svg="http://www.w3.org/2000/svg">
  <defs
     id="defs2" />
  <g
     fill="#2e3436"
     id="g2"
     style="fill:#ebdbb2;fill-opacity:1">
    <path
       d="m 3,1 h 3 c 0.550781,0 1,0.449219 1,1 v 12 c 0,0.550781 -0.449219,1 -1,1 H 3 C 2.449219,15 2,14.550781 2,14 V 2 C 2,1.449219 2.449219,1 3,1 Z m 0,0"
       id="path1"
       style="fill:#ebdbb2;fill-opacity:1" />
    <path
       d="m 10,1 h 3 c 0.550781,0 1,0.449219 1,1 v 12 c 0,0.550781 -0.449219,1 -1,1 H 10 C 9.449219,15 9,14.550781 9,14 V 2 C 9,1.449219 9.449219,1 10,1 Z m 0,0"
       id="path2"
       style="fill:#ebdbb2;fill-opacity:1" />
  </g>
</svg>
